<?xml version="1.0" encoding="utf-8"?>
<!-- Generator: Adobe Illustrator 24.0.3, SVG Export Plug-In . SVG Version: 6.00 Build 0)  -->
<svg version="1.1" id="圖層_1" xmlns="http://www.w3.org/2000/svg" xmlns:xlink="http://www.w3.org/1999/xlink" x="0px"
	y="0px" viewBox="0 0 960 320" style="enable-background:new 0 0 960 320;" xml:space="preserve">
	<style type="text/css">
		.st0 {
			fill: #FA7268;
			animation: carrier_arm_animation 2s infinite;
			transform-origin: center;
		}

		.st1 {
			fill: #EB5967;
			animation: carrier_arm_animation 3s infinite;
			transform-origin: center;
			/* animation-delay: 1s; */
		}

		.st2 {
			fill: #DA3F67;
			animation: carrier_arm_animation 4s infinite;
			transform-origin: center;
			/* animation-delay: 2s; */
		}

		.st3 {
			fill: #C62368;
			animation: carrier_arm_animation2 1s infinite;
			transform-origin: center;

		}

		@keyframes carrier_arm_animation2 {
			0% {
				transform: translateX(0) scale(1.3);
			}

			25% {
				transform: translate(10px, 0) scale(1.5);

			}

			50% {
				transform: translate(-5px, 0) scale(1.4);
			}

			75% {
				transform: translate(-10px, 0) scale(1.3);
			}

			100% {
				transform: translateX(0) scale(1.3);
			}
		}


		@keyframes carrier_arm_animation {
			0% {
				transform: translateX(0);
			}

			25% {
				transform: translate(10px, 5px) scale(0.98);

			}

			50% {
				transform: translate(-5px, -5px);
			}

			75% {
				transform: translate(-10px, 5px);
			}

			100% {
				transform: translateX(0);
			}
		}
	</style>
	<path class="st0"
		d="M0,320l26.7-0.7c26.6-0.6,80-1.9,133.3-20c53.3-18.2,106.7-53.2,160-61.3c53.3-8,106.7,10.9,160,21
	c53.3,10,106.7,11.4,160,1.9c53.3-9.5,106.7-29.7,160-27.9c53.3,1.7,106.7,25.4,133.3,37.2l26.7,11.8V160h-26.7
	c-26.6,0-80,0-133.3,0s-106.7,0-160,0s-106.7-22.7-160-22.7s-127.2,11.4-180.5,11.4S213.3,160,160,160s-106.7,0-133.3,0H0V320z" />
	<path class="st1" d="M0,196.9l26.7,2.1c26.6,2.1,80,6.4,133.3,4.5c53.3-1.8,106.7-9.9,160,0.6c53.3,10.5,106.7,39.3,160,49.1
	c53.3,9.9,106.7,0.8,160-7.4c53.3-8.1,106.7-15.4,160-25.5c53.3-10.1,106.7-23.3,133.3-29.8L960,184v-24h-26.7c-26.6,0-80,0-133.3,0
	s-106.7,0-160,0s-106.7-22.7-160-22.7s-127.2,11.4-180.5,11.4S213.3,160,160,160s-106.7,0-133.3,0H0V196.9z" />
	<path class="st2" d="M0,221.4l26.7-3.9c26.6-3.8,80-11.6,133.3-13c53.3-1.4,106.7,3.6,160,12.7c53.3,9.1,106.7,22.5,160,16.5
	c53.3-6,106.7-31.5,160-37.2c53.3-5.8,106.7,8.2,160,9.9c53.3,1.8,106.7-8.8,133.3-14L960,187v-27h-26.7c-26.6,0-80,0-133.3,0
	s-106.7,0-160,0s-106.7-22.7-160-22.7s-127.2,11.4-180.5,11.4S213.3,160,160,160s-106.7,0-133.3,0H0V221.4z" />
	<path class="st3"
		d="M469.2,137.4c-1.7,0.1-3.5,0.1-5.2,0.2c1.4,0,2.9-0.1,4.3-0.1C468.6,137.4,468.9,137.4,469.2,137.4z" />
	<path class="st3" d="M425,139.9c-35,2.9-70,7.4-105,8.4c-2.8,0.1-5.6,0.2-8.4,0.2c-2.8,0-5.6,0.1-8.4,0.1
	C339.1,148.3,383.8,143.2,425,139.9z" />
	<path class="st3" d="M299.5,148.7c1.2,0,2.4,0,3.6,0C301.9,148.6,300.7,148.7,299.5,148.7z" />
	<path class="st0" d="M960,0l-26.7,0.7c-26.6,0.6-80,1.9-133.3,20c-53.3,18.2-106.7,53.2-160,61.3S533.3,71,480,60.9
	c-53.3-10-106.7-11.4-160-1.9c-53.3,9.5-106.7,29.7-160,27.9C106.7,85.2,53.3,61.5,26.7,49.7L0,37.9V160h26.7c26.6,0,80,0,133.3,0
	s86.2-11.3,139.5-11.3s127.2-11.4,180.5-11.4S586.7,160,640,160s106.7,0,160,0s106.7,0,133.3,0H960V0z" />
	<path class="st1" d="M960,123.1l-26.7-2.1c-26.6-2.1-80-6.4-133.3-4.5c-53.3,1.8-106.7,9.9-160-0.6S533.3,76.6,480,66.7
	c-53.3-9.9-106.7-0.8-160,7.4S213.3,89.4,160,99.5c-53.3,10.1-106.7,23.3-133.3,29.8L0,136v24h26.7c26.6,0,80,0,133.3,0
	s86.2-11.3,139.5-11.3s127.2-11.4,180.5-11.4S586.7,160,640,160s106.7,0,160,0s106.7,0,133.3,0H960V123.1z" />
	<path class="st2" d="M960,98.6l-26.7,3.9c-26.6,3.8-80,11.6-133.3,13c-53.3,1.4-106.7-3.6-160-12.7c-53.3-9.1-106.7-22.5-160-16.5
	c-53.3,6-106.7,31.5-160,37.2c-53.3,5.8-106.7-8.2-160-9.9c-53.3-1.8-106.7,8.8-133.3,14L0,133v27h26.7c26.6,0,80,0,133.3,0
	s86.2-11.3,139.5-11.3s127.2-11.4,180.5-11.4S586.7,160,640,160s106.7,0,160,0s106.7,0,133.3,0H960V98.6z" />
	<path class="st3" d="M425,139.9c-35,2.9-70,7.4-105,8.4c-2.8,0.1-5.6,0.2-8.4,0.2c-2.8,0-5.6,0.1-8.4,0.1
	C339.1,148.3,383.8,143.2,425,139.9z" />
	<path class="st3" d="M299.5,148.7c1.2,0,2.4,0,3.6,0C301.9,148.6,300.7,148.7,299.5,148.7z" />
	<path class="st3" d="M469.2,137.4c-1.7,0.1-3.5,0.1-5.2,0.2c-5.2,0.2-10.6,0.5-16.1,0.8c-1.2,0.1-2.3,0.1-3.5,0.2
	c-1.3,0.1-2.6,0.2-3.9,0.2c-1.3,0.1-2.5,0.2-3.8,0.3c-3.8,0.3-7.5,0.5-11.4,0.8c14.3-1.2,28.6-2.1,43-2.5
	C468.6,137.4,468.9,137.4,469.2,137.4z" />
	<path class="st3" d="M960,107.2v81.1l-26.7-1c-26.6-1.1-80-3.1-133.3-7.2c-53.3-4-106.7-10.2-160-8.5c-53.3,1.6-106.7,11.1-160,11.1
	s-106.7-9.5-160-14.8s-106.7-6.6-160,1.5c-53.3,8.2-106.7,25.8-133.3,34.6L0,212.8v-81.1l26.7,1c26.6,1.1,80,3.1,133.3,7.2
	c46.4,3.5,92.9,8.6,139.3,8.8c0,0,0.1,0,0.2,0c4,0,8,0,12.1-0.1c2.8,0,5.6-0.1,8.4-0.2c35-1.1,70-5.5,105-8.4c0.1,0,0.2,0,0.3,0
	c3.8-0.3,7.6-0.6,11.4-0.8c1.3-0.1,2.5-0.2,3.8-0.3c1.3-0.1,2.6-0.2,3.9-0.2c1.2-0.1,2.3-0.1,3.5-0.2c5.5-0.3,10.9-0.6,16.1-0.8
	c1.8-0.1,3.5-0.1,5.2-0.2c1,0,1.9,0,2.9-0.1c1,0,2,0,2.9,0c1.7,0,3.3,0,5,0c0.8,0,1.7,0,2.5,0c52.5,0.3,105,9.6,157.5,14.8
	c53.3,5.4,106.7,6.6,160-1.5c53.3-8.2,106.7-25.8,133.3-34.6L960,107.2z" />
</svg>