<svg id="visual" viewBox="0 0 960 100" width="960" height="100" xmlns="http://www.w3.org/2000/svg"
    xmlns:xlink="http://www.w3.org/1999/xlink" version="1.1">

    <!-- <path
        d="M0 46L22.8 44.5C45.7 43 91.3 40 137 38.3C182.7 36.7 228.3 36.3 274 38.3C319.7 40.3 365.3 44.7 411.2 47C457 49.3 503 49.7 548.8 51.2C594.7 52.7 640.3 55.3 686 55.5C731.7 55.7 777.3 53.3 823 50.2C868.7 47 914.3 43 937.2 41L960 39L960 101L937.2 101C914.3 101 868.7 101 823 101C777.3 101 731.7 101 686 101C640.3 101 594.7 101 548.8 101C503 101 457 101 411.2 101C365.3 101 319.7 101 274 101C228.3 101 182.7 101 137 101C91.3 101 45.7 101 22.8 101L0 101Z"
        fill="#372c06"></path> -->
    <path
        d="M0 64L22.8 63.5C45.7 63 91.3 62 137 63.7C182.7 65.3 228.3 69.7 274 69.7C319.7 69.7 365.3 65.3 411.2 63.7C457 62 503 63 548.8 64.7C594.7 66.3 640.3 68.7 686 70.2C731.7 71.7 777.3 72.3 823 70.8C868.7 69.3 914.3 65.7 937.2 63.8L960 62L960 101L937.2 101C914.3 101 868.7 101 823 101C777.3 101 731.7 101 686 101C640.3 101 594.7 101 548.8 101C503 101 457 101 411.2 101C365.3 101 319.7 101 274 101C228.3 101 182.7 101 137 101C91.3 101 45.7 101 22.8 101L0 101Z"
        fill="#1F625E"></path>
</svg>