<svg xmlns="http://www.w3.org/2000/svg" xmlns:xlink="http://www.w3.org/1999/xlink" viewBox="0 0 256.12 256.12"><defs><style>.cls-1,.cls-10,.cls-11,.cls-12,.cls-13,.cls-14,.cls-15,.cls-16,.cls-17,.cls-18,.cls-19,.cls-2,.cls-20,.cls-21,.cls-22,.cls-23,.cls-24,.cls-25,.cls-26,.cls-27,.cls-28,.cls-29,.cls-3,.cls-30,.cls-31,.cls-32,.cls-33,.cls-34,.cls-35,.cls-36,.cls-37,.cls-38,.cls-39,.cls-4,.cls-40,.cls-41,.cls-42,.cls-43,.cls-44,.cls-45,.cls-46,.cls-47,.cls-48,.cls-49,.cls-5,.cls-50,.cls-51,.cls-6,.cls-7,.cls-8,.cls-9{fill:none;stroke-miterlimit:10;stroke-width:2px;}.cls-1{stroke:url(#未命名漸層_25);}.cls-2{stroke:url(#未命名漸層_25-2);}.cls-3{stroke:url(#未命名漸層_25-3);}.cls-4{stroke:url(#未命名漸層_25-4);}.cls-5{stroke:url(#未命名漸層_25-5);}.cls-6{stroke:url(#未命名漸層_25-6);}.cls-7{stroke:url(#未命名漸層_25-7);}.cls-8{stroke:url(#未命名漸層_25-8);}.cls-9{stroke:url(#未命名漸層_25-9);}.cls-10{stroke:url(#未命名漸層_25-10);}.cls-11{stroke:url(#未命名漸層_25-11);}.cls-12{stroke:url(#未命名漸層_25-12);}.cls-13{stroke:url(#未命名漸層_25-13);}.cls-14{stroke:url(#未命名漸層_25-14);}.cls-15{stroke:url(#未命名漸層_25-15);}.cls-16{stroke:url(#未命名漸層_25-16);}.cls-17{stroke:url(#未命名漸層_25-17);}.cls-18{stroke:url(#未命名漸層_25-18);}.cls-19{stroke:url(#未命名漸層_25-19);}.cls-20{stroke:url(#未命名漸層_25-20);}.cls-21{stroke:url(#未命名漸層_25-21);}.cls-22{stroke:url(#未命名漸層_25-22);}.cls-23{stroke:url(#未命名漸層_25-23);}.cls-24{stroke:url(#未命名漸層_25-24);}.cls-25{stroke:url(#未命名漸層_25-25);}.cls-26{stroke:url(#未命名漸層_25-26);}.cls-27{stroke:url(#未命名漸層_25-27);}.cls-28{stroke:url(#未命名漸層_25-28);}.cls-29{stroke:url(#未命名漸層_25-29);}.cls-30{stroke:url(#未命名漸層_25-30);}.cls-31{stroke:url(#未命名漸層_25-31);}.cls-32{stroke:url(#未命名漸層_25-32);}.cls-33{stroke:url(#未命名漸層_25-33);}.cls-34{stroke:url(#未命名漸層_25-34);}.cls-35{stroke:url(#未命名漸層_25-35);}.cls-36{stroke:url(#未命名漸層_25-36);}.cls-37{stroke:url(#未命名漸層_25-37);}.cls-38{stroke:url(#未命名漸層_25-38);}.cls-39{stroke:url(#未命名漸層_25-39);}.cls-40{stroke:url(#未命名漸層_25-40);}.cls-41{stroke:url(#未命名漸層_25-41);}.cls-42{stroke:url(#未命名漸層_25-42);}.cls-43{stroke:url(#未命名漸層_25-43);}.cls-44{stroke:url(#未命名漸層_25-44);}.cls-45{stroke:url(#未命名漸層_25-45);}.cls-46{stroke:url(#未命名漸層_25-46);}.cls-47{stroke:url(#未命名漸層_25-47);}.cls-48{stroke:url(#未命名漸層_25-48);}.cls-49{stroke:url(#未命名漸層_25-49);}.cls-50{stroke:url(#未命名漸層_25-50);}.cls-51{stroke:url(#未命名漸層_25-51);}</style><linearGradient id="未命名漸層_25" x1="464.66" y1="781.32" x2="336.58" y2="559.48" gradientTransform="matrix(0.11, -0.44, 0.25, 0.19, -88.02, 193.49)" gradientUnits="userSpaceOnUse"><stop offset="0" stop-color="#5f308e"/><stop offset="0.26" stop-color="#8a2f89"/><stop offset="0.6" stop-color="#bb2e82"/><stop offset="0.86" stop-color="#da2d7e"/><stop offset="1" stop-color="#e52d7d"/></linearGradient><linearGradient id="未命名漸層_25-2" x1="474.34" y1="766.82" x2="346.26" y2="544.98" gradientTransform="matrix(0.12, -0.45, 0.25, 0.21, -87.74, 193.02)" xlink:href="#未命名漸層_25"/><linearGradient id="未命名漸層_25-3" x1="482.86" y1="751.86" x2="354.78" y2="530.02" gradientTransform="matrix(0.12, -0.46, 0.25, 0.23, -87.41, 192.28)" xlink:href="#未命名漸層_25"/><linearGradient id="未命名漸層_25-4" x1="490.24" y1="736.49" x2="362.16" y2="514.65" gradientTransform="matrix(0.13, -0.47, 0.25, 0.25, -87.04, 191.25)" xlink:href="#未命名漸層_25"/><linearGradient id="未命名漸層_25-5" x1="496.52" y1="720.77" x2="368.44" y2="498.93" gradientTransform="matrix(0.14, -0.48, 0.25, 0.26, -86.62, 189.94)" xlink:href="#未命名漸層_25"/><linearGradient id="未命名漸層_25-6" x1="501.71" y1="704.76" x2="373.63" y2="482.92" gradientTransform="matrix(0.14, -0.48, 0.24, 0.28, -86.16, 188.35)" xlink:href="#未命名漸層_25"/><linearGradient id="未命名漸層_25-7" x1="505.85" y1="688.51" x2="377.77" y2="466.66" gradientTransform="matrix(0.15, -0.49, 0.24, 0.31, -85.67, 186.49)" xlink:href="#未命名漸層_25"/><linearGradient id="未命名漸層_25-8" x1="508.97" y1="672.07" x2="380.89" y2="450.23" gradientTransform="matrix(0.16, -0.5, 0.24, 0.33, -85.14, 184.35)" xlink:href="#未命名漸層_25"/><linearGradient id="未命名漸層_25-9" x1="511.1" y1="655.49" x2="383.02" y2="433.65" gradientTransform="matrix(0.17, -0.51, 0.24, 0.35, -84.59, 181.95)" xlink:href="#未命名漸層_25"/><linearGradient id="未命名漸層_25-10" x1="512.27" y1="638.84" x2="384.19" y2="417" gradientTransform="matrix(0.17, -0.51, 0.24, 0.37, -84.01, 179.29)" xlink:href="#未命名漸層_25"/><linearGradient id="未命名漸層_25-11" x1="512.53" y1="622.14" x2="384.45" y2="400.3" gradientTransform="matrix(0.18, -0.52, 0.24, 0.39, -83.4, 176.38)" xlink:href="#未命名漸層_25"/><linearGradient id="未命名漸層_25-12" x1="511.9" y1="605.46" x2="383.82" y2="383.62" gradientTransform="matrix(0.19, -0.52, 0.24, 0.41, -82.77, 173.22)" xlink:href="#未命名漸層_25"/><linearGradient id="未命名漸層_25-13" x1="510.42" y1="588.83" x2="382.34" y2="366.99" gradientTransform="matrix(0.2, -0.53, 0.24, 0.44, -82.12, 169.82)" xlink:href="#未命名漸層_25"/><linearGradient id="未命名漸層_25-14" x1="508.13" y1="572.3" x2="380.05" y2="350.46" gradientTransform="matrix(0.21, -0.53, 0.24, 0.46, -81.45, 166.19)" xlink:href="#未命名漸層_25"/><linearGradient id="未命名漸層_25-15" x1="505.08" y1="555.91" x2="377" y2="334.07" gradientTransform="matrix(0.21, -0.53, 0.24, 0.48, -80.76, 162.35)" xlink:href="#未命名漸層_25"/><linearGradient id="未命名漸層_25-16" x1="501.29" y1="539.69" x2="373.21" y2="317.85" gradientTransform="matrix(0.22, -0.54, 0.24, 0.51, -80.04, 158.3)" xlink:href="#未命名漸層_25"/><linearGradient id="未命名漸層_25-17" x1="496.8" y1="523.69" x2="368.73" y2="301.84" gradientTransform="matrix(0.23, -0.54, 0.24, 0.53, -79.3, 154.05)" xlink:href="#未命名漸層_25"/><linearGradient id="未命名漸層_25-18" x1="491.67" y1="507.93" x2="363.59" y2="286.09" gradientTransform="matrix(0.24, -0.53, 0.23, 0.55, -78.54, 149.62)" xlink:href="#未命名漸層_25"/><linearGradient id="未命名漸層_25-19" x1="485.92" y1="492.45" x2="357.85" y2="270.61" gradientTransform="matrix(0.25, -0.53, 0.23, 0.58, -77.76, 145.02)" xlink:href="#未命名漸層_25"/><linearGradient id="未命名漸層_25-20" x1="479.61" y1="477.28" x2="351.53" y2="255.44" gradientTransform="matrix(0.26, -0.53, 0.23, 0.6, -76.95, 140.27)" xlink:href="#未命名漸層_25"/><linearGradient id="未命名漸層_25-21" x1="472.75" y1="462.45" x2="344.67" y2="240.61" gradientTransform="matrix(0.28, -0.53, 0.23, 0.62, -76.11, 135.38)" xlink:href="#未命名漸層_25"/><linearGradient id="未命名漸層_25-22" x1="465.41" y1="447.98" x2="337.33" y2="226.14" gradientTransform="matrix(0.29, -0.52, 0.23, 0.65, -75.23, 130.36)" xlink:href="#未命名漸層_25"/><linearGradient id="未命名漸層_25-23" x1="457.61" y1="433.91" x2="329.53" y2="212.07" gradientTransform="matrix(0.3, -0.52, 0.23, 0.67, -74.33, 125.23)" xlink:href="#未命名漸層_25"/><linearGradient id="未命名漸層_25-24" x1="449.4" y1="420.24" x2="321.32" y2="198.4" gradientTransform="matrix(0.31, -0.51, 0.23, 0.69, -73.38, 120)" xlink:href="#未命名漸層_25"/><linearGradient id="未命名漸層_25-25" x1="440.81" y1="407.01" x2="312.73" y2="185.17" gradientTransform="matrix(0.33, -0.5, 0.23, 0.71, -72.39, 114.7)" xlink:href="#未命名漸層_25"/><linearGradient id="未命名漸層_25-26" x1="431.88" y1="394.22" x2="303.8" y2="172.38" gradientTransform="matrix(0.34, -0.49, 0.23, 0.73, -71.35, 109.34)" xlink:href="#未命名漸層_25"/><linearGradient id="未命名漸層_25-27" x1="422.66" y1="381.9" x2="294.58" y2="160.06" gradientTransform="matrix(0.35, -0.48, 0.23, 0.75, -70.25, 103.93)" xlink:href="#未命名漸層_25"/><linearGradient id="未命名漸層_25-28" x1="413.16" y1="370.07" x2="285.08" y2="148.22" gradientTransform="matrix(0.37, -0.47, 0.22, 0.77, -69.09, 98.49)" xlink:href="#未命名漸層_25"/><linearGradient id="未命名漸層_25-29" x1="403.45" y1="358.72" x2="275.37" y2="136.88" gradientTransform="matrix(0.39, -0.46, 0.22, 0.79, -67.86, 93.04)" xlink:href="#未命名漸層_25"/><linearGradient id="未命名漸層_25-30" x1="393.54" y1="347.88" x2="265.46" y2="126.04" gradientTransform="matrix(0.4, -0.44, 0.22, 0.81, -66.56, 87.59)" xlink:href="#未命名漸層_25"/><linearGradient id="未命名漸層_25-31" x1="383.47" y1="337.55" x2="255.39" y2="115.71" gradientTransform="matrix(0.42, -0.43, 0.22, 0.83, -65.17, 82.17)" xlink:href="#未命名漸層_25"/><linearGradient id="未命名漸層_25-32" x1="373.28" y1="327.74" x2="245.2" y2="105.9" gradientTransform="matrix(0.44, -0.41, 0.21, 0.85, -63.68, 76.78)" xlink:href="#未命名漸層_25"/><linearGradient id="未命名漸層_25-33" x1="362.99" y1="318.46" x2="234.91" y2="96.62" gradientTransform="matrix(0.46, -0.39, 0.21, 0.87, -62.09, 71.44)" xlink:href="#未命名漸層_25"/><linearGradient id="未命名漸層_25-34" x1="352.64" y1="309.7" x2="224.57" y2="87.86" gradientTransform="matrix(0.48, -0.38, 0.2, 0.88, -60.38, 66.17)" xlink:href="#未命名漸層_25"/><linearGradient id="未命名漸層_25-35" x1="342.27" y1="301.48" x2="214.19" y2="79.64" gradientTransform="matrix(0.5, -0.36, 0.2, 0.9, -58.54, 60.99)" xlink:href="#未命名漸層_25"/><linearGradient id="未命名漸層_25-36" x1="331.89" y1="293.79" x2="203.81" y2="71.95" gradientTransform="matrix(0.52, -0.34, 0.19, 0.91, -56.56, 55.9)" xlink:href="#未命名漸層_25"/><linearGradient id="未命名漸層_25-37" x1="321.54" y1="286.64" x2="193.46" y2="64.8" gradientTransform="matrix(0.55, -0.32, 0.19, 0.92, -54.41, 50.92)" xlink:href="#未命名漸層_25"/><linearGradient id="未命名漸層_25-38" x1="311.24" y1="280.01" x2="183.16" y2="58.17" gradientTransform="matrix(0.57, -0.3, 0.18, 0.93, -52.09, 46.06)" xlink:href="#未命名漸層_25"/><linearGradient id="未命名漸層_25-39" x1="301.02" y1="273.91" x2="172.94" y2="52.07" gradientTransform="matrix(0.6, -0.27, 0.17, 0.95, -49.58, 41.33)" xlink:href="#未命名漸層_25"/><linearGradient id="未命名漸層_25-40" x1="290.9" y1="268.33" x2="162.82" y2="46.49" gradientTransform="matrix(0.62, -0.25, 0.16, 0.96, -46.85, 36.74)" xlink:href="#未命名漸層_25"/><linearGradient id="未命名漸層_25-41" x1="280.91" y1="263.27" x2="152.83" y2="41.43" gradientTransform="matrix(0.65, -0.23, 0.15, 0.96, -43.9, 32.3)" xlink:href="#未命名漸層_25"/><linearGradient id="未命名漸層_25-42" x1="271.07" y1="258.71" x2="142.99" y2="36.87" gradientTransform="matrix(0.68, -0.2, 0.14, 0.97, -40.69, 28.01)" xlink:href="#未命名漸層_25"/><linearGradient id="未命名漸層_25-43" x1="261.39" y1="254.66" x2="133.31" y2="32.82" gradientTransform="matrix(0.71, -0.18, 0.13, 0.98, -37.21, 23.89)" xlink:href="#未命名漸層_25"/><linearGradient id="未命名漸層_25-44" x1="251.91" y1="251.1" x2="123.83" y2="29.26" gradientTransform="matrix(0.74, -0.15, 0.12, 0.98, -33.43, 19.92)" xlink:href="#未命名漸層_25"/><linearGradient id="未命名漸層_25-45" x1="242.62" y1="248.02" x2="114.54" y2="26.18" gradientTransform="matrix(0.78, -0.13, 0.1, 0.99, -29.33, 16.12)" xlink:href="#未命名漸層_25"/><linearGradient id="未命名漸層_25-46" x1="233.56" y1="245.41" x2="105.49" y2="23.57" gradientTransform="matrix(0.81, -0.1, 0.08, 0.99, -24.89, 12.49)" xlink:href="#未命名漸層_25"/><linearGradient id="未命名漸層_25-47" x1="224.74" y1="243.26" x2="96.66" y2="21.42" gradientTransform="matrix(0.85, -0.08, 0.07, 1, -20.08, 9.02)" xlink:href="#未命名漸層_25"/><linearGradient id="未命名漸層_25-48" x1="216.17" y1="241.55" x2="88.09" y2="19.71" gradientTransform="matrix(0.88, -0.05, 0.05, 1, -14.87, 5.71)" xlink:href="#未命名漸層_25"/><linearGradient id="未命名漸層_25-49" x1="207.87" y1="240.28" x2="79.79" y2="18.44" gradientTransform="matrix(0.92, -0.03, 0.02, 1, -9.24, 2.55)" xlink:href="#未命名漸層_25"/><linearGradient id="未命名漸層_25-50" x1="199.84" y1="239.43" x2="71.76" y2="17.59" gradientTransform="translate(-3.16 -0.45) scale(0.96 1)" xlink:href="#未命名漸層_25"/><linearGradient id="未命名漸層_25-51" x1="192.1" y1="238.98" x2="64.02" y2="17.14" gradientTransform="matrix(1, 0, 0, 1, 0, 0)" xlink:href="#未命名漸層_25"/></defs><title>資產 2</title><g id="圖層_2" data-name="圖層 2"><g id="圖層_1-2" data-name="圖層 1"><ellipse class="cls-1" cx="123.23" cy="146.51" rx="34.65" ry="60.52" transform="translate(-57.28 210.29) rotate(-69.39)"/><ellipse class="cls-2" cx="122.91" cy="146.27" rx="34.86" ry="62.66" transform="translate(-58.74 205.47) rotate(-68.01)"/><ellipse class="cls-3" cx="122.59" cy="146.02" rx="35.1" ry="64.83" transform="translate(-60.07 200.66) rotate(-66.64)"/><ellipse class="cls-4" cx="122.28" cy="145.76" rx="35.37" ry="67.02" transform="translate(-61.26 195.86) rotate(-65.28)"/><ellipse class="cls-5" cx="121.97" cy="145.47" rx="35.66" ry="69.23" transform="translate(-62.31 191.08) rotate(-63.92)"/><ellipse class="cls-6" cx="121.66" cy="145.18" rx="35.99" ry="71.46" transform="translate(-63.23 186.32) rotate(-62.58)"/><ellipse class="cls-7" cx="121.35" cy="144.86" rx="36.35" ry="73.7" transform="matrix(0.48, -0.88, 0.88, 0.48, -64.02, 181.58)"/><ellipse class="cls-8" cx="121.05" cy="144.53" rx="36.74" ry="75.95" transform="translate(-64.69 176.86) rotate(-59.93)"/><ellipse class="cls-9" cx="120.75" cy="144.19" rx="37.17" ry="78.2" transform="translate(-65.23 172.18) rotate(-58.61)"/><ellipse class="cls-10" cx="120.47" cy="143.83" rx="37.64" ry="80.45" transform="translate(-65.64 167.52) rotate(-57.31)"/><ellipse class="cls-11" cx="120.18" cy="143.45" rx="38.14" ry="82.69" transform="translate(-65.95 162.89) rotate(-56.01)"/><ellipse class="cls-12" cx="119.91" cy="143.06" rx="38.69" ry="84.92" transform="matrix(0.58, -0.82, 0.82, 0.58, -66.14, 158.3)"/><ellipse class="cls-13" cx="119.65" cy="142.66" rx="39.28" ry="87.14" transform="translate(-66.21 153.74) rotate(-53.43)"/><ellipse class="cls-14" cx="119.4" cy="142.25" rx="39.91" ry="89.33" transform="translate(-66.18 149.22) rotate(-52.14)"/><ellipse class="cls-15" cx="119.17" cy="141.82" rx="40.59" ry="91.49" transform="translate(-66.05 144.74) rotate(-50.86)"/><ellipse class="cls-16" cx="118.94" cy="141.38" rx="41.31" ry="93.63" transform="translate(-65.81 140.29) rotate(-49.59)"/><ellipse class="cls-17" cx="118.73" cy="140.93" rx="42.09" ry="95.73" transform="translate(-65.48 135.87) rotate(-48.31)"/><ellipse class="cls-18" cx="118.54" cy="140.47" rx="42.92" ry="97.78" transform="translate(-65.04 131.5) rotate(-47.04)"/><ellipse class="cls-19" cx="118.37" cy="140" rx="43.81" ry="99.79" transform="translate(-64.51 127.16) rotate(-45.77)"/><ellipse class="cls-20" cx="118.21" cy="139.52" rx="44.76" ry="101.75" transform="translate(-63.89 122.85) rotate(-44.5)"/><ellipse class="cls-21" cx="118.07" cy="139.03" rx="45.77" ry="103.65" transform="translate(-63.18 118.58) rotate(-43.22)"/><ellipse class="cls-22" cx="117.96" cy="138.54" rx="46.84" ry="105.5" transform="translate(-62.38 114.34) rotate(-41.95)"/><ellipse class="cls-23" cx="117.87" cy="138.04" rx="47.98" ry="107.28" transform="translate(-61.49 110.14) rotate(-40.67)"/><ellipse class="cls-24" cx="117.8" cy="137.54" rx="49.2" ry="108.99" transform="translate(-60.52 105.97) rotate(-39.38)"/><ellipse class="cls-25" cx="117.75" cy="137.03" rx="50.49" ry="110.63" transform="translate(-59.46 101.84) rotate(-38.09)"/><ellipse class="cls-26" cx="117.73" cy="136.52" rx="51.86" ry="112.2" transform="translate(-58.32 97.73) rotate(-36.8)"/><ellipse class="cls-27" cx="117.74" cy="136.02" rx="53.31" ry="113.69" transform="translate(-57.1 93.65) rotate(-35.5)"/><ellipse class="cls-28" cx="117.77" cy="135.51" rx="54.85" ry="115.1" transform="translate(-55.8 89.61) rotate(-34.19)"/><ellipse class="cls-29" cx="117.84" cy="135.01" rx="56.48" ry="116.43" transform="translate(-54.41 85.59) rotate(-32.88)"/><ellipse class="cls-30" cx="117.93" cy="134.51" rx="58.21" ry="117.67" transform="translate(-52.95 81.6) rotate(-31.55)"/><ellipse class="cls-31" cx="118.06" cy="134.01" rx="60.05" ry="118.84" transform="translate(-51.4 77.63) rotate(-30.22)"/><ellipse class="cls-32" cx="118.22" cy="133.52" rx="61.99" ry="119.91" transform="translate(-49.78 73.69) rotate(-28.88)"/><ellipse class="cls-33" cx="118.41" cy="133.05" rx="64.04" ry="120.9" transform="translate(-48.08 69.77) rotate(-27.52)"/><ellipse class="cls-34" cx="118.63" cy="132.58" rx="66.21" ry="121.81" transform="translate(-46.3 65.88) rotate(-26.16)"/><ellipse class="cls-35" cx="118.89" cy="132.12" rx="68.51" ry="122.63" transform="translate(-44.44 62.01) rotate(-24.78)"/><ellipse class="cls-36" cx="119.19" cy="131.68" rx="70.93" ry="123.37" transform="translate(-42.49 58.16) rotate(-23.4)"/><ellipse class="cls-37" cx="119.52" cy="131.26" rx="73.5" ry="124.03" transform="translate(-40.47 54.33) rotate(-22)"/><ellipse class="cls-38" cx="119.88" cy="130.85" rx="76.2" ry="124.62" transform="translate(-38.37 50.53) rotate(-20.59)"/><ellipse class="cls-39" cx="120.28" cy="130.46" rx="79.05" ry="125.12" transform="translate(-36.18 46.75) rotate(-19.18)"/><ellipse class="cls-40" cx="120.73" cy="130.1" rx="82.06" ry="125.56" transform="translate(-33.91 42.99) rotate(-17.75)"/><ellipse class="cls-41" cx="121.2" cy="129.76" rx="85.23" ry="125.92" transform="translate(-31.56 39.25) rotate(-16.31)"/><ellipse class="cls-42" cx="121.72" cy="129.44" rx="88.57" ry="126.23" transform="matrix(0.97, -0.26, 0.26, 0.97, -29.12, 35.54)"/><ellipse class="cls-43" cx="122.27" cy="129.15" rx="92.08" ry="126.47" transform="translate(-26.6 31.85) rotate(-13.4)"/><ellipse class="cls-44" cx="122.87" cy="128.89" rx="95.77" ry="126.67" transform="translate(-23.99 28.19) rotate(-11.93)"/><ellipse class="cls-45" cx="123.5" cy="128.66" rx="99.65" ry="126.81" transform="translate(-21.3 24.55) rotate(-10.46)"/><ellipse class="cls-46" cx="124.17" cy="128.47" rx="103.72" ry="126.92" transform="translate(-18.52 20.94) rotate(-8.98)"/><ellipse class="cls-47" cx="124.87" cy="128.31" rx="107.98" ry="126.99" transform="translate(-15.66 17.37) rotate(-7.49)"/><ellipse class="cls-48" cx="125.61" cy="128.18" rx="112.44" ry="127.03" transform="translate(-12.7 13.82) rotate(-6)"/><ellipse class="cls-49" cx="126.39" cy="128.1" rx="117.1" ry="127.05" transform="translate(-9.66 10.31) rotate(-4.5)"/><ellipse class="cls-50" cx="127.21" cy="128.06" rx="121.98" ry="127.06" transform="translate(-6.53 6.83) rotate(-3)"/><circle class="cls-51" cx="128.06" cy="128.06" r="127.06"/></g></g></svg>